<svg xmlns="http://www.w3.org/2000/svg" xmlns:xlink="http://www.w3.org/1999/xlink" enable-background="new 0 0 128 128" viewBox="4 27.24 120 96.88"><linearGradient id="a" gradientUnits="userSpaceOnUse" x1="64" x2="64" y1="33.149" y2="87.611"><stop offset=".0646" stop-color="#d4292e"/><stop offset=".3992" stop-color="#d2292e"/><stop offset=".5838" stop-color="#ca292e"/><stop offset=".732" stop-color="#bc2a2f"/><stop offset=".8607" stop-color="#a82b30"/><stop offset=".9757" stop-color="#8f2c31"/><stop offset="1" stop-color="#892c31"/></linearGradient><linearGradient id="b" gradientUnits="userSpaceOnUse" x1="5.1667" x2="123.48" y1="105.25" y2="105.25"><stop offset=".0852" stop-color="#d4292e"/><stop offset=".5211" stop-color="#d2292e"/><stop offset=".6781" stop-color="#cb292e"/><stop offset=".79" stop-color="#c02a2f"/><stop offset=".8805" stop-color="#af2a2f"/><stop offset=".9571" stop-color="#992b30"/><stop offset="1" stop-color="#892c31"/></linearGradient><linearGradient id="c"><stop offset="0" stop-color="#bdbdbd"/><stop offset=".9997" stop-color="#757575"/></linearGradient><linearGradient id="d" gradientUnits="userSpaceOnUse" x1="19.003" x2="19.003" xlink:href="#c" y1="94.429" y2="100.01"/><linearGradient id="e"><stop offset=".00030048" stop-color="#787878"/><stop offset="1" stop-color="#fff"/></linearGradient><linearGradient id="f" gradientUnits="userSpaceOnUse" x1="19.003" x2="19.003" xlink:href="#e" y1="93.33" y2="99.483"/><linearGradient id="g" gradientUnits="userSpaceOnUse" x1="19.003" x2="19.003" xlink:href="#c" y1="87.642" y2="94.916"/><linearGradient id="h" gradientUnits="userSpaceOnUse" x1="15.24" x2="15.24" xlink:href="#e" y1="88.035" y2="93.456"/><linearGradient id="i" gradientUnits="userSpaceOnUse" x1="22.7" x2="22.7" xlink:href="#e" y1="88.035" y2="93.456"/><linearGradient id="j" gradientUnits="userSpaceOnUse" x1="109.06" x2="109.06" xlink:href="#c" y1="94.429" y2="100.01"/><linearGradient id="k" gradientUnits="userSpaceOnUse" x1="109.06" x2="109.06" xlink:href="#e" y1="93.33" y2="99.483"/><linearGradient id="l" gradientUnits="userSpaceOnUse" x1="109.06" x2="109.06" xlink:href="#c" y1="87.642" y2="94.916"/><linearGradient id="m" gradientUnits="userSpaceOnUse" x1="105.3" x2="105.3" xlink:href="#e" y1="88.035" y2="93.456"/><linearGradient id="n" gradientUnits="userSpaceOnUse" x1="112.76" x2="112.76" xlink:href="#e" y1="88.035" y2="93.456"/><clipPath id="o"><path d="m4 27.24h120v58.29h-120z"/></clipPath><linearGradient id="p" gradientTransform="matrix(.7748 -.6322 .6322 .7748 -41.76 47.404)" gradientUnits="userSpaceOnUse" x1="42.306" x2="47.243" y1="50.61" y2="78.724"><stop offset="0" stop-color="#bad4dd"/><stop offset=".3181" stop-color="#b6d1da"/><stop offset=".6076" stop-color="#abc7d2"/><stop offset=".8851" stop-color="#99b7c4"/><stop offset=".999" stop-color="#8faebc"/></linearGradient><linearGradient id="q" gradientTransform="matrix(.7748 -.6322 .6322 .7748 -41.76 47.404)" gradientUnits="userSpaceOnUse" x1="48.579" x2="49.688" y1="77.265" y2="95"><stop offset="0" stop-color="#d4292e"/><stop offset=".0586" stop-color="#d2262b"/><stop offset=".6533" stop-color="#c30a13"/><stop offset="1" stop-color="#bd000a"/></linearGradient><linearGradient id="r" gradientTransform="matrix(.9763 .2165 -.2165 .9763 19.667 -21.723)" gradientUnits="userSpaceOnUse" x1="83.172" x2="109.06" y1="109.26" y2="57.956"><stop offset=".00098157" stop-color="#8faebc"/><stop offset=".2609" stop-color="#94b3c0"/><stop offset=".5869" stop-color="#a4c0cc"/><stop offset=".9056" stop-color="#bad4dd"/></linearGradient><path d="m6.85 33.15h114.29v47.02h-114.29z" fill="url(#a)"/><path d="m11.34 37h105.32v39.73h-105.32z" fill="#911616"/><path d="m124 86.39h-120l3-6.27h114z" fill="#ff2f29"/><path d="m121.51 85.24h-115.02l1.88-3.98h111.26z" fill="#420909"/><path d="m4 86.39h120v37.73h-120z" fill="url(#b)"/><path d="m118.15 36.15v43.17c-.21.7-.15 1.46.17 2.14l2.68 5.61v34.05h-114v-34.05l2.68-5.61c.32-.68.38-1.44.17-2.14v-43.17zm3-3h-114.3v47.02h.12l-2.97 6.22v37.73h120v-37.73l-2.98-6.22h.12v-47.02z" fill="#424242" opacity=".2"/><path d="m20.61 100.06h-3.21c-.46 0-.83-.39-.83-.87l-1.54-4.11c0-.48.37-.87.83-.87h6.3c.46 0 .83.39.83.87l-1.54 4.11c-.01.49-.38.87-.84.87z" fill="url(#d)"/><path d="m19.16 100.06h-.31c-.47 0-.84-.39-.84-.88l-.77-5.89c0-.49.38-.88.84-.88h1.85c.47 0 .84.39.84.88l-.77 5.89c0 .49-.38.88-.84.88z" fill="url(#f)"/><path d="m20.6 94.92h-3.2c-.46 0-.84-.38-.84-.84v-5.6c0-.46.38-.84.84-.84h3.2c.46 0 .84.38.84.84v5.6c0 .46-.37.84-.84.84z" fill="url(#g)"/><path d="m15.86 93.46h-1.24c-.27 0-.49-.22-.49-.49v-4.45c0-.27.22-.49.49-.49h1.24c.27 0 .49.22.49.49v4.45c0 .27-.22.49-.49.49z" fill="url(#h)"/><path d="m23.32 93.46h-1.24c-.27 0-.49-.22-.49-.49v-4.45c0-.27.22-.49.49-.49h1.24c.27 0 .49.22.49.49v4.45c0 .27-.22.49-.49.49z" fill="url(#i)"/><path d="m110.67 100.06h-3.22c-.46 0-.83-.39-.83-.87l-1.54-4.11c0-.48.37-.87.83-.87h6.3c.46 0 .83.39.83.87l-1.54 4.11c0 .49-.37.87-.83.87z" fill="url(#j)"/><path d="m109.21 100.06h-.31c-.47 0-.84-.39-.84-.88l-.77-5.89c0-.49.38-.88.84-.88h1.85c.47 0 .84.39.84.88l-.77 5.89c.01.49-.37.88-.84.88z" fill="url(#k)"/><path d="m110.66 94.92h-3.2c-.46 0-.84-.38-.84-.84v-5.6c0-.46.38-.84.84-.84h3.2c.46 0 .84.38.84.84v5.6c0 .46-.37.84-.84.84z" fill="url(#l)"/><path d="m105.92 93.46h-1.24c-.27 0-.49-.22-.49-.49v-4.45c0-.27.22-.49.49-.49h1.24c.27 0 .49.22.49.49v4.45c0 .27-.22.49-.49.49z" fill="url(#m)"/><path d="m113.38 93.46h-1.24c-.27 0-.49-.22-.49-.49v-4.45c0-.27.22-.49.49-.49h1.24c.27 0 .49.22.49.49v4.45c0 .27-.22.49-.49.49z" fill="url(#n)"/><g clip-path="url(#o)"><path d="m32.11 70.48c.07.05.08.14.03.21l-3.75 5c-.05.07-.14.08-.21.03l-1.66-1.24c-.07-.05-.08-.14-.03-.21l3.75-5c.05-.07.14-.08.21-.03z" fill="#8faebc"/><path d="m18.96 61.49c-.92 3.64.36 7.65 3.55 10.04 3.2 2.4 7.4 2.5 10.64.59l-3.54-5.89-3.94.29z" fill="#809ca8"/><path d="m23.49 54.67 7.17 5.37.38 3.16-8.08 10.8c.19.08.39.16.6.23.02.01.03.01.05.02.01 0 .03.01.04.01.78.26 1.57.42 2.37.47 1.84.21 3.8.18 5.12.21 3.66.09 7.43 3.08 9.47 4.98l29.43 29.87 5.71-7.43-33.51-31.97-.24-.24c-5.24-5.03-3.37-8.98-5.52-12.25-.54-.83-.89-1.27-1.13-1.47-.38-.41-.8-.79-1.27-1.14-3.19-2.38-7.36-2.49-10.59-.62z" fill="url(#p)"/><path d="m40.89 80.88 5.69-7 29.81 28.43-6.3 8.2z" fill="url(#q)"/><path d="m47.22 73.39c.41.3.5.87.2 1.28l-5.07 7.05c-.3.41-.87.5-1.28.2s-.5-.87-.2-1.28l5.07-7.05c.3-.41.87-.5 1.28-.2z" fill="#ff3238"/><path d="m116.27 62.68-4.05 5.17-6.03-.3-1.72-5.78 4.07-5.15s-4.41-.97-7.95 3.53c-3.34 4.25 0 9.1 0 9.1l-16.25 20.58-5.53-.59-6.39 8.1 3.2 8.99-.05.06v.01l.07.01.02.07h.01l.05-.06 9.5.98 6.36-8.12-1.88-5.23 16.17-20.65s5.51 2.09 8.85-2.15c3.54-4.52 1.55-8.57 1.55-8.57zm-32.57 40.51-5.12-.53-1.72-4.85 3.45-4.37 5.09.55 1.74 4.82z" fill="url(#r)"/><path d="m75.56 55.19-.91 12.08c-.06-.01-.11-.03-.17-.04-1.45-.25-2.47.5-2.67 1.67-.2 1.16.48 2.29 1.94 2.54l-4.94 3.48s-.78-1.76-.23-4.92c.59-3.39 5.28-15.62 5.28-15.62z" fill="#8faebc"/><g fill="#ffab2e"><path d="m78.04 110.54c-.05-4.07-1.25-8.69-2.41-13.15-1.04-4.02-2.03-7.81-2.08-10.94 0-.19 0-.39.01-.57l.01-.24h.25.01l3.99-.07-.02.27c-.02.22-.02.4-.02.54.04 2.62.96 6.18 1.94 9.94l.01.02c1.22 4.7 2.48 9.57 2.54 14.15v.24l-4.23.06z"/><path d="m77.56 85.82c-.02.21-.02.4-.02.56.04 2.65.97 6.22 1.95 10.01 1.22 4.69 2.48 9.55 2.54 14.1l-3.74.05c-.05-4.1-1.26-8.73-2.42-13.21-1.04-4.01-2.02-7.79-2.07-10.89 0-.17 0-.36.01-.56h.02zm.52-.5-.54.01-3.71.06h-.03l-.48-.01-.02.47c-.01.18-.02.39-.01.59.05 3.16 1.04 6.97 2.09 11 1.15 4.45 2.35 9.05 2.4 13.09l.01.49.49-.01 3.74-.05.49-.01-.01-.49c-.06-4.61-1.32-9.48-2.55-14.2v-.01c-.97-3.76-1.89-7.3-1.94-9.89 0-.13 0-.3.02-.51z"/></g><path d="m74.28 80.66c-.04-.58-.44-.79-.72-.86l.64-3.68c1.23.21 3.6 1.38 3.81 4.27.07.91-.07 2.12-.22 3.32-.08-.02-.17-.03-.26-.03l-3.51.06c.01-.08.02-.15.03-.23.13-1.05.27-2.24.23-2.85z" fill="#8faebc"/><g fill="#ffc431"><path d="m73.52 86.18c-.57-.11-.99-.61-1-1.19-.01-.33.12-.64.35-.88s.54-.37.86-.38l3.74-.06c.07 0 .15.01.24.02.02 0 .04.01.06.01.55.13.94.61.95 1.18.01.68-.53 1.24-1.21 1.25l-3.75.06h-.02c-.06.01-.14 0-.22-.01z"/><path d="m77.68 83.86c.02 0 .04.01.06.01.46.11.82.52.82 1.02.01.59-.46 1.08-1.05 1.09h-.01l-3.73.06h-.02c-.07 0-.14-.01-.2-.02-.49-.09-.86-.51-.87-1.03-.01-.59.46-1.08 1.05-1.09h.23l3.51-.06c.07 0 .14 0 .21.02m.06-.32c-.1-.02-.18-.03-.27-.02l-3.51.06h-.23c-.37.01-.72.16-.98.43s-.4.62-.39.99c.01.66.49 1.22 1.13 1.34.08.02.16.02.24.02h.05l3.73-.06h.01c.76-.01 1.38-.65 1.37-1.42-.01-.64-.45-1.18-1.08-1.33-.02 0-.05-.01-.07-.01z"/></g><g fill="#ffab2e"><path d="m51.27 105.33.09-.23c1.6-4.29 4.43-8.45 7.17-12.46 2.2-3.23 4.27-6.26 5.19-8.71.05-.13.1-.29.16-.51l.07-.26 3.73 1.41.02.01.22.08-.07.23c-.05.17-.11.36-.18.54-1.1 2.92-3.31 6.17-5.65 9.6-2.6 3.81-5.28 7.75-6.71 11.57l-.09.23z"/><path d="m64.11 83.48 3.49 1.32h.02c-.06.18-.11.36-.18.53-1.09 2.9-3.29 6.13-5.62 9.55-2.61 3.82-5.3 7.78-6.73 11.62l-3.5-1.31c1.59-4.26 4.42-8.41 7.15-12.42 2.2-3.23 4.28-6.28 5.21-8.76.05-.14.11-.32.16-.53m-.32-.65-.14.52c-.06.21-.11.37-.16.49-.91 2.42-2.97 5.45-5.15 8.65l-.01.01c-2.75 4.03-5.59 8.2-7.2 12.52l-.17.46.46.17 3.5 1.31.46.17.17-.46c1.42-3.79 4.09-7.72 6.68-11.51 2.35-3.44 4.56-6.7 5.68-9.65.07-.19.13-.39.19-.56l.14-.45-.44-.16-.03-.01h-.01l-3.46-1.31z"/></g><path d="m68.94 79.73c.24-.53.68-.6.97-.56l.64-3.68c-1.23-.21-3.86.08-5.03 2.73-.37.84-.65 2.02-.91 3.2.09.01.17.03.26.06l3.28 1.24c.02-.08.03-.15.05-.23.23-1.03.49-2.2.74-2.76z" fill="#8faebc"/><g fill="#ffc431"><path d="m67.7 85.17c-.06-.01-.13-.03-.19-.05l-.02-.01-3.49-1.32c-.32-.12-.56-.35-.69-.65-.14-.3-.15-.63-.03-.94.2-.53.73-.85 1.29-.78.04 0 .07.01.11.02.07.01.13.03.19.05l3.5 1.32c.64.24.96.95.72 1.59-.22.55-.8.88-1.39.77z"/><path d="m64.65 81.59c.05.01.11.02.16.04l3.28 1.24.22.08c.55.21.83.83.62 1.38-.19.49-.7.77-1.2.67-.05-.01-.11-.03-.16-.04h-.02l-3.49-1.32h-.01c-.55-.21-.83-.83-.62-1.38.18-.47.64-.73 1.12-.68.03 0 .07 0 .1.01m.06-.32c-.04-.01-.08-.01-.12-.02-.64-.07-1.24.29-1.46.89-.13.35-.12.73.03 1.07s.43.6.78.73l3.5 1.32.02.01h.02c.06.02.13.04.2.05.67.13 1.32-.24 1.56-.88.27-.72-.09-1.53-.81-1.8l-.22-.08-3.28-1.24c-.07-.02-.14-.04-.22-.05z"/></g><path d="m72.42 71.03c.29.16.62.27.98.34 1.45.25 2.64-.49 2.84-1.65.19-1.07-.5-2.11-1.75-2.47l3.23-11.71 1.87-.04s.28 12.99-.31 16.35c-.4 2.32-1.23 3.69-1.63 4.25 0 .29-.02.58-.07.88-.48 2.76-3.11 4.61-5.87 4.13s-4.61-3.11-4.13-5.87c.41-2.42 2.48-4.14 4.84-4.21z" fill="#bad4dd"/><path d="m70.21 75.7c-.23 1.31.65 2.55 1.96 2.78s2.55-.65 2.78-1.96-.65-2.55-1.96-2.78-2.56.65-2.78 1.96z" fill="#8faebc"/></g></svg>